<?xml version="1.0" encoding="iso-8859-1"?>
<!-- Generator: Adobe Illustrator 19.0.0, SVG Export Plug-In . SVG Version: 6.00 Build 0)  -->
<svg version="1.1" id="Capa_1" xmlns="http://www.w3.org/2000/svg" xmlns:xlink="http://www.w3.org/1999/xlink" x="0px" y="0px"
	 viewBox="0 0 512 512" style="enable-background:new 0 0 512 512;" xml:space="preserve">
<g>
	<path style="fill:#FFB125;" d="M329.672,153.209c-6.97,0-13.682-2.849-18.417-7.816c-6.543-6.867-7.964-16.573-3.711-25.335
		c7.077-14.581,20.43-20.003,32.211-24.786c8.32-3.379,16.178-6.571,21.633-12.653c6.235-6.952,9.266-17.84,9.266-33.286V34.317
		c-3.267,0.796-6.16,2.757-8.101,5.572l-3.463,5.023c-5.061,7.34-13.405,11.722-22.319,11.722h-20.867
		c-4.267,0-7.727-3.459-7.727-7.727s3.459-7.727,7.727-7.727h20.867c3.833,0,7.42-1.884,9.597-5.041l3.463-5.023
		c5.444-7.895,14.419-12.622,24.009-12.648c3.228,0.001,6.37,1.279,8.671,3.572c2.32,2.315,3.596,5.391,3.596,8.664v18.628
		c0,19.426-4.323,33.689-13.215,43.604c-7.838,8.739-18.189,12.942-27.321,16.652c-10.101,4.101-19.638,7.973-24.125,17.216
		c-1.01,2.081-1.656,5.143,0.996,7.926c1.778,1.865,4.548,3.024,7.23,3.024c1.102,0,2.156-0.201,3.045-0.581
		c0.951-0.406,3.485-1.489,4.141-6.597c0.544-4.233,4.407-7.23,8.648-6.679c4.233,0.543,7.223,4.415,6.679,8.647
		c-1.149,8.948-5.908,15.64-13.398,18.84C335.953,152.597,332.887,153.209,329.672,153.209z M373.891,33.923
		c0.011-0.004,0.017,0,0.026,0C373.909,33.923,373.9,33.923,373.891,33.923z"/>
	<path style="fill:#FFB125;" d="M182.328,153.209c-3.214,0-6.281-0.613-9.112-1.821c-7.495-3.203-12.253-9.895-13.401-18.842
		c-0.543-4.233,2.448-8.105,6.68-8.648c4.231-0.54,8.104,2.449,8.647,6.68c0.655,5.108,3.189,6.19,4.143,6.598
		c0.887,0.378,1.941,0.58,3.043,0.58c2.682,0,5.452-1.159,7.23-3.024c2.652-2.783,2.006-5.846,0.997-7.926
		c-4.487-9.243-14.024-13.115-24.122-17.215c-9.135-3.71-19.486-7.914-27.324-16.653c-8.893-9.915-13.216-24.177-13.216-43.604
		V30.706c0-3.275,1.277-6.351,3.596-8.664c2.28-2.273,5.417-3.572,8.62-3.572c0.03,0,0.06,0,0.09,0
		c9.551,0.025,18.526,4.753,23.97,12.647l3.464,5.025c2.176,3.155,5.763,5.04,9.596,5.04h20.867c4.267,0,7.727,3.459,7.727,7.727
		s-3.459,7.727-7.727,7.727H175.23c-8.914,0-17.258-4.382-22.319-11.721l-3.464-5.025c-1.944-2.819-4.843-4.782-8.1-5.575v15.02
		c0,15.447,3.031,26.334,9.266,33.286c5.456,6.082,13.313,9.273,21.632,12.653c11.782,4.783,25.135,10.205,32.212,24.787
		c4.253,8.762,2.831,18.469-3.711,25.333C196.011,150.36,189.299,153.209,182.328,153.209z M138.121,33.923
		c0.008,0,0.006-0.007,0.025,0C138.137,33.923,138.129,33.923,138.121,33.923z"/>
</g>
<g>
	<rect x="243.14" y="164.38" style="fill:#FED130;" width="25.885" height="92.75"/>
	<path style="fill:#FED130;" d="M184.857,10.427v57.139c0,40.52,19.258,78.627,51.881,102.661l19.343,14.25l19.343-14.25
		c32.622-24.034,51.881-62.141,51.881-102.661V10.427H184.857z"/>
	<path style="fill:#FED130;" d="M184.857,10.427v57.139c0,40.52,19.258,78.627,51.881,102.661l7.276,5.36
		c7.176,5.287,16.958,5.287,24.135,0l7.276-5.36c32.622-24.034,51.881-62.141,51.881-102.661V10.427H184.857z"/>
</g>
<path style="fill:#F7BC14;" d="M280.342,10.427v57.139c0,38.771-17.642,75.325-47.743,99.463c1.357,1.088,2.73,2.161,4.138,3.198
	l7.276,5.36c7.176,5.287,16.958,5.287,24.135,0l7.276-5.36c32.623-24.034,51.881-62.141,51.881-102.661V10.427H280.342z"/>
<path style="fill:#FFB125;" d="M332.274,24.918H179.887c-2.374,0-4.298-1.924-4.298-4.298V4.939c0-2.374,1.924-4.298,4.298-4.298
	h152.386c2.374,0,4.298,1.924,4.298,4.298V20.62C336.572,22.994,334.647,24.918,332.274,24.918z"/>
<path style="fill:#FF901D;" d="M332.274,0.641H290.06v24.277h42.213c2.374,0,4.298-1.924,4.298-4.298V4.939
	C336.572,2.566,334.647,0.641,332.274,0.641z"/>
<path style="fill:#FFB125;" d="M310.746,293.492H201.415l9.556-39.123c0.344-1.408,1.606-2.399,3.055-2.399h84.108
	c1.449,0,2.711,0.991,3.055,2.399L310.746,293.492z"/>
<path style="fill:#FF901D;" d="M301.19,254.369c-0.344-1.408-1.606-2.399-3.055-2.399h-43.977l10.142,41.522h46.446L301.19,254.369z
	"/>
<path style="fill:#B9BBC1;" d="M505.672,340.692H341.333v-42.806c0-3.495-2.833-6.328-6.328-6.328h-158.01
	c-3.495,0-6.328,2.833-6.328,6.328v42.806H6.328c-3.495,0-6.328,2.833-6.328,6.328v158.01c0,3.495,2.833,6.328,6.328,6.328h164.338
	h170.667h164.338c3.495,0,6.328-2.833,6.328-6.328V347.02C512,343.525,509.167,340.692,505.672,340.692z"/>
<g>
	<path style="fill:#A0A3AA;" d="M505.672,340.692h-31.465v170.667l0,0h31.465c3.495,0,6.328-2.833,6.328-6.328V347.02
		C512,343.525,509.167,340.692,505.672,340.692z"/>
	<polygon style="fill:#A0A3AA;" points="170.667,340.692 132.874,340.692 132.874,511.358 132.873,511.359 170.667,511.359 	"/>
</g>
<path style="fill:#B9BBC1;" d="M341.333,511.358H170.667V297.886c0-3.495,2.833-6.328,6.328-6.328h158.01
	c3.495,0,6.328,2.833,6.328,6.328V511.358z"/>
<path style="fill:#A0A3AA;" d="M335.005,291.558h-30.14v219.801h36.469V297.886C341.333,294.391,338.5,291.558,335.005,291.558z"/>
<path style="fill:#FED130;" d="M82.804,484.176c-32.065,0-58.151-26.087-58.151-58.151c0-32.066,26.087-58.152,58.151-58.152h0.857
	c32.065,0,58.151,26.087,58.151,58.152s-26.087,58.151-58.151,58.151H82.804z"/>
<path style="fill:#F7BC14;" d="M83.661,367.873h-0.857c-5.516,0-10.847,0.788-15.907,2.23c23.153,8.039,39.822,30.067,39.822,55.922
	s-16.669,47.882-39.822,55.921c5.059,1.441,10.391,2.23,15.907,2.23h0.857c32.065,0,58.151-26.087,58.151-58.151
	C141.812,393.96,115.726,367.873,83.661,367.873z"/>
<path style="fill:#FED130;" d="M256.51,459.61c-32.066,0-58.152-26.087-58.152-58.152s26.087-58.151,58.152-58.151h0.856
	c32.065,0,58.151,26.087,58.151,58.151c0,32.066-26.087,58.152-58.151,58.152H256.51z"/>
<path style="fill:#F7BC14;" d="M257.366,343.307h-0.856c-5.587,0-10.986,0.808-16.104,2.286
	c23.075,8.082,39.674,30.066,39.674,55.865c0,25.8-16.599,47.784-39.675,55.866c5.118,1.478,10.517,2.286,16.104,2.286h0.856
	c32.065,0,58.151-26.087,58.151-58.152C315.517,369.393,289.43,343.307,257.366,343.307z"/>
<path style="fill:#FED130;" d="M428.339,484.176c-32.065,0-58.151-26.087-58.151-58.151c0-32.066,26.087-58.152,58.151-58.152h0.857
	c32.065,0,58.151,26.087,58.151,58.152s-26.087,58.151-58.151,58.151H428.339z"/>
<path style="fill:#F7BC14;" d="M429.195,367.873h-0.857c-5.569,0-10.951,0.803-16.054,2.272
	c23.095,8.071,39.712,30.066,39.712,55.88s-16.617,47.809-39.712,55.879c5.103,1.469,10.485,2.272,16.054,2.272h0.857
	c32.065,0,58.151-26.087,58.151-58.151C487.347,393.96,461.26,367.873,429.195,367.873z"/>
<g>
	<path style="fill:#2D5872;" d="M429.315,458.638c11.706,0,21.284-5.41,21.284-19.688v-1.685c0-7.36-3.814-11.351-9.046-13.391
		c4.345-2.04,6.917-7.715,6.917-14.721c0-11.795-7.981-15.874-18.712-15.874c-14.988,0-19.422,9.134-19.422,15.431
		c0,3.725,0.798,4.967,5.942,4.967c4.257,0,5.498-1.774,5.498-4.434c0-3.547,2.128-5.942,7.893-5.942
		c4.789,0,7.804,1.951,7.804,7.804c0,7.627-3.724,8.69-8.159,8.69c-2.572,0-3.459,2.306-3.459,4.523
		c0,2.306,0.887,4.523,3.459,4.523c5.676,0,9.755,1.863,9.755,8.425v1.685c0,6.74-2.838,9.577-9.489,9.577
		c-5.676,0-9.223-2.483-9.223-6.474c0-2.838-1.241-4.08-5.942-4.08c-3.99,0-5.498,0.976-5.498,4.523
		C408.918,449.681,414.771,458.638,429.315,458.638z"/>
	<path style="fill:#2D5872;" d="M68.157,458.372h31.571c1.951,0,3.636-2.483,3.636-5.144s-1.685-4.966-3.636-4.966H75.074v-2.129
		c0-9.223,28.112-15.431,28.112-34.586c0-11.263-9.578-18.003-19.865-18.003c-9.844,0-19.067,6.208-19.067,16.318
		c0,4.789,2.217,6.208,5.232,6.208c3.814,0,6.031-2.128,6.031-4.257c0-5.498,3.547-7.804,7.893-7.804
		c5.853,0,8.247,4.257,8.247,7.893c0,12.505-28.556,20.042-28.556,34.232v8.602C63.102,456.953,66.117,458.372,68.157,458.372z"/>
	<path style="fill:#2D5872;" d="M258.301,366.257c-0.976,0-1.774,0.355-2.395,0.887l-10.464,7.981
		c-1.419,0.886-2.217,2.572-2.217,4.168c0,2.306,1.507,4.612,3.725,4.612c0.62,0,1.419-0.177,2.128-0.798l2.838-2.838v47.357
		c0,2.394,2.838,3.636,5.764,3.636c2.838,0,5.764-1.242,5.764-3.636v-57.644C263.444,367.676,260.695,366.257,258.301,366.257z"/>
</g>
<g>
</g>
<g>
</g>
<g>
</g>
<g>
</g>
<g>
</g>
<g>
</g>
<g>
</g>
<g>
</g>
<g>
</g>
<g>
</g>
<g>
</g>
<g>
</g>
<g>
</g>
<g>
</g>
<g>
</g>
</svg>
