<svg height="496pt" viewBox="0 0 496 496" width="496pt" xmlns="http://www.w3.org/2000/svg"><path d="m352 352v40l16.40625 5.472656c4.539062 1.511719 7.59375 5.75 7.59375 10.527344s-3.054688 9.015625-7.59375 10.527344l-16.40625 5.472656v40h112v-112zm0 0" fill="#f0bc5e"/><path d="m120 0v16h360v464h-352v-32h185.449219l57.863281-21.695312c7.589844-2.839844 12.6875-10.199219 12.6875-18.304688s-5.097656-15.464844-12.679688-18.304688l-57.871093-21.695312h-185.449219v-112h-16v112h-72c-22.054688 0-40 17.945312-40 40s17.945312 40 40 40h72v48h384v-496zm184 400h-192v-16h192zm-208 32h-16v-48h16zm16-16h192v16h-192zm256-8c0 1.472656-.921875 2.800781-2.304688 3.320312l-45.695312 17.136719v-40.914062l45.703125 17.136719c1.375.519531 2.296875 1.847656 2.296875 3.320312zm-352 0c0-13.230469 10.769531-24 24-24h24v48h-24c-13.230469 0-24-10.769531-24-24zm0 0"/><path d="m144 320h192v16h-192zm0 0"/><path d="m144 288h192v16h-192zm0 0"/><path d="m464 144h-208v-16h192v-80h-238.296875v-16h254.296875zm0 0"/><path d="m256 158.246094v-60.492188l-21.886719-5.464844c-1.640625-4.882812-3.578125-9.601562-5.816406-14.113281l11.597656-19.296875-42.773437-42.773437-19.296875 11.597656c-4.503907-2.230469-9.222657-4.167969-14.113281-5.816406l-5.464844-21.886719h-60.492188l-5.464844 21.886719c-4.882812 1.640625-9.601562 3.578125-14.113281 5.816406l-19.296875-11.597656-42.773437 42.773437 11.597656 19.296875c-2.230469 4.503907-4.167969 9.222657-5.816406 14.113281l-21.886719 5.464844v60.492188l21.886719 5.464844c1.640625 4.882812 3.578125 9.601562 5.816406 14.113281l-11.597656 19.296875 42.78125 42.78125 19.296875-11.597656c4.503906 2.230468 9.222656 4.167968 14.113281 5.816406l5.457031 21.878906h60.492188l5.464844-21.886719c4.882812-1.640625 9.601562-3.578125 14.113281-5.816406l19.296875 11.597656 42.78125-42.78125-11.597656-19.296875c2.230468-4.503906 4.167968-9.222656 5.816406-14.113281zm-128 9.753906c-22.089844 0-40-17.910156-40-40s17.910156-40 40-40 40 17.910156 40 40-17.910156 40-40 40zm0 0" fill="#f0bc5e"/><path d="m128 208c-44.113281 0-80-35.886719-80-80s35.886719-80 80-80 80 35.886719 80 80-35.886719 80-80 80zm0-144c-35.289062 0-64 28.710938-64 64s28.710938 64 64 64 64-28.710938 64-64-28.710938-64-64-64zm0 0"/><path d="m128 176c-26.472656 0-48-21.527344-48-48s21.527344-48 48-48 48 21.527344 48 48-21.527344 48-48 48zm0-80c-17.648438 0-32 14.351562-32 32s14.351562 32 32 32 32-14.351562 32-32-14.351562-32-32-32zm0 0"/><path d="m464 336h-112v-112h112zm0 0" fill="#f0bc5e"/><path d="m192 256h144v16h-144zm0 0"/><path d="m240 224h96v16h-96zm0 0"/><path d="m448 192h16v16h-16zm0 0"/><path d="m272 192h160v16h-160zm0 0"/><path d="m272 160h16v16h-16zm0 0"/><path d="m304 160h160v16h-160zm0 0"/></svg>