<svg height="512pt" viewBox="-48 0 512 512" width="512pt" xmlns="http://www.w3.org/2000/svg"><path d="m392.765625 112.21875h-57.109375v-9.015625h-15.03125v185.359375h-193.375v-273.53125h129.25v72.140625h79.15625v-19.144531l-68.027344-68.027344h-155.410156v32.0625h-32.0625v112.21875h-48.09375v208.40625h-17.03125v-217.421875c0-4.699219 4.320312-8.015625 9.015625-8.015625h40.078125v-15.03125h-40.078125c-12.984375 0-24.046875 10.0625-24.046875 23.046875v256.5c0 12.984375 11.0625 24.046875 24.046875 24.046875h144.28125v49.09375h-8.015625c-12.984375 0-24.046875 10.0625-24.046875 23.046875v24.046875h143.28125v-24.046875c0-12.984375-10.0625-23.046875-23.046875-23.046875h-9.015625v-49.09375h145.28125c12.984375 0 23.046875-11.0625 23.046875-24.046875v-256.5c0-12.984375-10.0625-23.046875-23.046875-23.046875zm-121.234375-87.0625 46.984375 46.984375h-46.984375zm-176.34375 21.9375h17.03125v256.5h176.34375v17.03125h-193.375zm-48.09375 112.21875h33.0625v176.34375h223.4375v-32.0625h32.0625v-144.28125h33.0625v193.375h-321.625zm209.40625 320.625c4.695312 0 8.015625 3.320312 8.015625 8.015625v9.015625h-113.21875v-9.015625c0-4.695313 4.320313-8.015625 9.015625-8.015625zm-73.140625-15.03125v-49.09375h49.09375v49.09375zm217.421875-73.140625c0 4.695313-3.320312 9.015625-8.015625 9.015625h-368.71875c-4.695313 0-9.015625-4.320312-9.015625-9.015625v-24.046875h385.75zm0-39.078125h-17.03125v-208.40625h-48.09375v-17.03125h57.109375c4.695313 0 8.015625 3.316406 8.015625 8.015625zm0 0"/><path d="m152.296875 40.078125h16.03125v15.03125h-16.03125zm0 0"/><path d="m184.359375 40.078125h16.03125v15.03125h-16.03125zm0 0"/><path d="m216.421875 40.078125h16.03125v15.03125h-16.03125zm0 0"/><path d="m199.390625 263.515625v-55.109375h-47.09375v55.109375h15.03125v-16.03125h17.03125v16.03125zm-32.0625-31.0625v-9.015625h17.03125v9.015625zm0 0"/><path d="m152.296875 72.140625h88.171875v15.03125h-88.171875zm0 0"/><path d="m152.296875 104.203125h144.28125v15.03125h-144.28125zm0 0"/><path d="m152.296875 136.265625h144.28125v15.03125h-144.28125zm0 0"/><path d="m256.5 248.484375h40.078125v15.03125h-40.078125zm0 0"/><path d="m272.53125 216.421875h24.046875v15.03125h-24.046875zm0 0"/><path d="m200.390625 376.734375h16.03125v15.03125h-16.03125zm0 0"/></svg>